<?xml version="1.0" encoding="UTF-8" standalone="no"?>
<!DOCTYPE svg PUBLIC "-//W3C//DTD SVG 1.1//EN" "http://www.w3.org/Graphics/SVG/1.1/DTD/svg11.dtd">
<svg width="100%" height="100%" viewBox="0 0 200 200" version="1.1" xmlns="http://www.w3.org/2000/svg" xmlns:xlink="http://www.w3.org/1999/xlink" xml:space="preserve" xmlns:serif="http://www.serif.com/" style="fill-rule:evenodd;clip-rule:evenodd;stroke-linejoin:round;stroke-miterlimit:2;">
    <g transform="matrix(1.36972,0,0,1.36972,-42.6397,93.266)">
        <g transform="matrix(144,0,0,144,30.6226,73.1893)">
            <path d="M0.25,-0.46C0.318,-0.46 0.372,-0.435 0.413,-0.383C0.448,-0.339 0.465,-0.289 0.465,-0.232C0.465,-0.192 0.456,-0.151 0.437,-0.11C0.417,-0.069 0.391,-0.038 0.357,-0.018C0.323,0.003 0.286,0.014 0.245,0.014C0.177,0.014 0.124,-0.013 0.084,-0.067C0.05,-0.112 0.034,-0.163 0.034,-0.219C0.034,-0.26 0.044,-0.301 0.064,-0.342C0.085,-0.382 0.111,-0.412 0.145,-0.431C0.178,-0.451 0.213,-0.46 0.25,-0.46ZM0.235,-0.429C0.218,-0.429 0.2,-0.424 0.183,-0.413C0.165,-0.403 0.151,-0.385 0.141,-0.359C0.13,-0.334 0.125,-0.301 0.125,-0.26C0.125,-0.195 0.137,-0.139 0.163,-0.092C0.189,-0.045 0.223,-0.021 0.266,-0.021C0.297,-0.021 0.323,-0.034 0.344,-0.06C0.364,-0.086 0.375,-0.131 0.375,-0.194C0.375,-0.274 0.357,-0.336 0.323,-0.382C0.3,-0.413 0.271,-0.429 0.235,-0.429Z" style="fill:rgb(207,73,151);fill-rule:nonzero;"/>
        </g>
        <g transform="matrix(144,0,0,144,102.623,73.1893)">
            <path d="M0.163,-0.694L0.163,-0.367C0.199,-0.407 0.227,-0.432 0.249,-0.444C0.27,-0.455 0.291,-0.46 0.312,-0.46C0.337,-0.46 0.359,-0.453 0.377,-0.439C0.396,-0.425 0.409,-0.403 0.418,-0.374C0.424,-0.353 0.427,-0.315 0.427,-0.259L0.427,-0.101C0.427,-0.073 0.43,-0.053 0.434,-0.043C0.437,-0.035 0.443,-0.029 0.451,-0.024C0.458,-0.02 0.473,-0.018 0.494,-0.018L0.494,-0L0.274,-0L0.274,-0.018L0.284,-0.018C0.305,-0.018 0.319,-0.021 0.328,-0.027C0.336,-0.033 0.341,-0.043 0.345,-0.055C0.346,-0.06 0.346,-0.076 0.346,-0.101L0.346,-0.259C0.346,-0.308 0.344,-0.34 0.339,-0.355C0.334,-0.371 0.326,-0.382 0.314,-0.39C0.303,-0.398 0.29,-0.401 0.274,-0.401C0.258,-0.401 0.242,-0.397 0.225,-0.389C0.207,-0.38 0.187,-0.363 0.163,-0.337L0.163,-0.101C0.163,-0.07 0.164,-0.051 0.168,-0.044C0.171,-0.036 0.177,-0.03 0.187,-0.025C0.196,-0.02 0.212,-0.018 0.235,-0.018L0.235,-0L0.013,-0L0.013,-0.018C0.033,-0.018 0.049,-0.021 0.06,-0.027C0.067,-0.03 0.072,-0.036 0.076,-0.045C0.08,-0.055 0.082,-0.073 0.082,-0.101L0.082,-0.506C0.082,-0.557 0.08,-0.588 0.078,-0.6C0.075,-0.612 0.072,-0.62 0.067,-0.624C0.062,-0.628 0.055,-0.63 0.046,-0.63C0.04,-0.63 0.028,-0.628 0.013,-0.623L0.006,-0.64L0.14,-0.694L0.163,-0.694Z" style="fill:rgb(207,73,151);fill-rule:nonzero;"/>
        </g>
    </g>
    <g transform="matrix(1,0,0,1,-8.50006,1.52672)">
        <g transform="matrix(60,0,0,60,13.8501,45.2351)">
            <path d="M0.234,-0L0.01,-0.7L0.253,-0.7L0.434,-0.109L0.312,-0.109L0.504,-0.7L0.721,-0.7L0.9,-0.109L0.783,-0.109L0.972,-0.7L1.196,-0.7L0.972,-0L0.719,-0L0.573,-0.484L0.641,-0.484L0.487,-0L0.234,-0Z" style="fill:rgb(0,122,200);fill-rule:nonzero;"/>
        </g>
        <g transform="matrix(60,0,0,60,86.2101,45.2351)">
            <path d="M0.234,-0L0.01,-0.7L0.253,-0.7L0.434,-0.109L0.312,-0.109L0.504,-0.7L0.721,-0.7L0.9,-0.109L0.783,-0.109L0.972,-0.7L1.196,-0.7L0.972,-0L0.719,-0L0.573,-0.484L0.641,-0.484L0.487,-0L0.234,-0Z" style="fill:rgb(0,122,200);fill-rule:nonzero;"/>
        </g>
        <g transform="matrix(60,0,0,60,158.57,45.2351)">
            <path d="M0.392,0.016C0.285,0.016 0.201,-0.013 0.141,-0.071C0.081,-0.129 0.051,-0.21 0.051,-0.315L0.051,-0.7L0.287,-0.7L0.287,-0.322C0.287,-0.269 0.297,-0.231 0.316,-0.209C0.335,-0.186 0.361,-0.175 0.394,-0.175C0.427,-0.175 0.454,-0.186 0.472,-0.209C0.492,-0.231 0.501,-0.269 0.501,-0.322L0.501,-0.7L0.733,-0.7L0.733,-0.315C0.733,-0.21 0.703,-0.129 0.643,-0.071C0.583,-0.013 0.499,0.016 0.392,0.016Z" style="fill:rgb(0,122,200);fill-rule:nonzero;"/>
        </g>
    </g>
</svg>
