<?xml version="1.0" encoding="UTF-8" standalone="no"?>
<!DOCTYPE svg PUBLIC "-//W3C//DTD SVG 1.1//EN" "http://www.w3.org/Graphics/SVG/1.1/DTD/svg11.dtd">
<svg width="100%" height="100%" viewBox="0 0 135 135" version="1.1" xmlns="http://www.w3.org/2000/svg" xmlns:xlink="http://www.w3.org/1999/xlink" xml:space="preserve" xmlns:serif="http://www.serif.com/" style="fill-rule:evenodd;clip-rule:evenodd;stroke-linejoin:round;stroke-miterlimit:2;">
    <path id="Background" d="M135,33.75C135,15.123 119.877,0 101.25,0L33.75,0C15.123,0 0,15.123 0,33.75L0,101.25C0,119.877 15.123,135 33.75,135L101.25,135C119.877,135 135,119.877 135,101.25L135,33.75Z" style="fill:rgb(187,18,115);"/>
    <g transform="matrix(1,0,0,1,-24.6458,11.2708)">
        <g transform="matrix(33.3333,0,0,33.3333,32.8792,96.5)">
            <path d="M0.099,-0.746L0.015,-0.757L0.015,-0.8L0.178,-0.819L0.18,-0.819L0.202,-0.804L0.202,-0.572L0.198,-0.487C0.219,-0.506 0.249,-0.525 0.286,-0.542C0.323,-0.559 0.361,-0.568 0.399,-0.568C0.441,-0.568 0.474,-0.56 0.497,-0.544C0.52,-0.528 0.537,-0.503 0.546,-0.47C0.555,-0.438 0.56,-0.393 0.56,-0.337L0.56,-0.058L0.63,-0.049L0.63,-0L0.391,-0L0.391,-0.049L0.456,-0.058L0.456,-0.338C0.456,-0.377 0.453,-0.408 0.448,-0.431C0.443,-0.453 0.433,-0.469 0.418,-0.481C0.403,-0.492 0.381,-0.497 0.352,-0.497C0.328,-0.497 0.302,-0.491 0.275,-0.479C0.248,-0.467 0.224,-0.453 0.203,-0.437L0.203,-0.058L0.272,-0.049L0.272,-0L0.039,-0L0.039,-0.049L0.099,-0.057L0.099,-0.746Z" style="fill:white;fill-rule:nonzero;"/>
        </g>
        <g transform="matrix(33.3333,0,0,33.3333,54.8458,96.5)">
            <path d="M0.163,-0.655C0.142,-0.655 0.126,-0.661 0.115,-0.673C0.104,-0.685 0.099,-0.7 0.099,-0.719C0.099,-0.74 0.106,-0.758 0.118,-0.772C0.132,-0.786 0.149,-0.793 0.172,-0.793C0.195,-0.793 0.211,-0.787 0.222,-0.775C0.233,-0.763 0.238,-0.748 0.238,-0.729C0.238,-0.706 0.232,-0.688 0.219,-0.675C0.205,-0.662 0.187,-0.655 0.164,-0.655L0.163,-0.655ZM0.123,-0.478L0.047,-0.496L0.047,-0.549L0.202,-0.568L0.204,-0.568L0.227,-0.55L0.227,-0.057L0.307,-0.049L0.307,-0L0.042,-0L0.042,-0.049L0.123,-0.058L0.123,-0.478Z" style="fill:white;fill-rule:nonzero;"/>
        </g>
        <g transform="matrix(33.3333,0,0,33.3333,65.9458,96.5)">
            <path d="M0.138,-0.08C0.145,-0.07 0.159,-0.061 0.181,-0.053C0.202,-0.045 0.225,-0.041 0.249,-0.041C0.287,-0.041 0.315,-0.048 0.333,-0.063C0.351,-0.078 0.36,-0.098 0.36,-0.124C0.36,-0.142 0.354,-0.158 0.343,-0.171C0.332,-0.184 0.316,-0.196 0.296,-0.206C0.275,-0.217 0.246,-0.229 0.208,-0.244C0.157,-0.263 0.119,-0.286 0.096,-0.314C0.072,-0.341 0.06,-0.376 0.06,-0.42C0.06,-0.449 0.069,-0.475 0.086,-0.497C0.104,-0.519 0.129,-0.536 0.16,-0.549C0.191,-0.561 0.225,-0.567 0.263,-0.567C0.294,-0.567 0.321,-0.565 0.344,-0.56C0.367,-0.555 0.385,-0.551 0.399,-0.546C0.413,-0.541 0.422,-0.538 0.427,-0.537L0.427,-0.413L0.366,-0.413L0.346,-0.487C0.342,-0.495 0.331,-0.502 0.314,-0.507C0.297,-0.513 0.277,-0.516 0.256,-0.516C0.226,-0.516 0.202,-0.509 0.184,-0.496C0.165,-0.483 0.156,-0.465 0.156,-0.442C0.156,-0.422 0.161,-0.406 0.171,-0.393C0.18,-0.38 0.192,-0.369 0.207,-0.361C0.222,-0.353 0.242,-0.344 0.267,-0.333L0.287,-0.325C0.324,-0.31 0.355,-0.296 0.378,-0.283C0.401,-0.27 0.421,-0.252 0.437,-0.231C0.452,-0.209 0.46,-0.182 0.46,-0.151C0.46,-0.102 0.441,-0.062 0.403,-0.033C0.364,-0.004 0.312,0.011 0.245,0.011C0.212,0.011 0.178,0.006 0.142,-0.003C0.107,-0.012 0.078,-0.021 0.055,-0.03L0.055,-0.158L0.12,-0.158L0.138,-0.08Z" style="fill:white;fill-rule:nonzero;"/>
        </g>
        <g transform="matrix(33.3333,0,0,33.3333,82.7792,96.5)">
            <path d="M0.216,0.01C0.178,0.01 0.15,0.001 0.131,-0.016C0.112,-0.033 0.103,-0.063 0.103,-0.105L0.103,-0.489L0.031,-0.489L0.031,-0.534C0.034,-0.535 0.044,-0.537 0.059,-0.541C0.074,-0.545 0.085,-0.549 0.09,-0.552C0.101,-0.558 0.109,-0.57 0.115,-0.588C0.12,-0.601 0.127,-0.621 0.134,-0.649C0.141,-0.677 0.146,-0.694 0.147,-0.699L0.206,-0.699L0.208,-0.555L0.375,-0.555L0.375,-0.489L0.208,-0.489L0.208,-0.182C0.208,-0.144 0.209,-0.117 0.212,-0.102C0.214,-0.087 0.219,-0.077 0.227,-0.072C0.234,-0.067 0.247,-0.065 0.266,-0.065C0.284,-0.065 0.304,-0.067 0.326,-0.072C0.347,-0.077 0.364,-0.082 0.376,-0.087L0.391,-0.042C0.375,-0.03 0.349,-0.018 0.314,-0.007C0.278,0.004 0.245,0.01 0.216,0.01Z" style="fill:white;fill-rule:nonzero;"/>
        </g>
        <g transform="matrix(33.3333,0,0,33.3333,96.3458,96.5)">
            <path d="M0.045,-0.279C0.045,-0.339 0.057,-0.391 0.082,-0.435C0.107,-0.479 0.139,-0.513 0.18,-0.536C0.22,-0.559 0.263,-0.57 0.309,-0.57C0.393,-0.57 0.456,-0.543 0.499,-0.49C0.541,-0.437 0.562,-0.367 0.562,-0.28C0.562,-0.219 0.55,-0.167 0.525,-0.123C0.5,-0.079 0.468,-0.046 0.428,-0.023C0.387,-0 0.344,0.011 0.298,0.011C0.214,0.011 0.151,-0.016 0.109,-0.069C0.066,-0.122 0.045,-0.192 0.045,-0.279ZM0.304,-0.046C0.35,-0.046 0.385,-0.065 0.41,-0.103C0.435,-0.141 0.447,-0.197 0.447,-0.272C0.447,-0.346 0.436,-0.405 0.413,-0.448C0.39,-0.491 0.354,-0.513 0.304,-0.513C0.258,-0.513 0.223,-0.494 0.198,-0.456C0.172,-0.418 0.16,-0.362 0.16,-0.287C0.16,-0.213 0.172,-0.154 0.195,-0.111C0.218,-0.068 0.255,-0.046 0.304,-0.046Z" style="fill:white;fill-rule:nonzero;"/>
        </g>
        <g transform="matrix(33.3333,0,0,33.3333,116.612,96.5)">
            <path d="M0.047,-0.049L0.122,-0.055L0.122,-0.478L0.05,-0.496L0.05,-0.55L0.188,-0.568L0.19,-0.568L0.212,-0.55L0.212,-0.532L0.209,-0.454L0.212,-0.454C0.219,-0.465 0.231,-0.48 0.248,-0.498C0.265,-0.516 0.288,-0.533 0.315,-0.548C0.342,-0.563 0.372,-0.57 0.404,-0.57C0.417,-0.57 0.428,-0.568 0.437,-0.565L0.437,-0.453C0.432,-0.456 0.425,-0.46 0.414,-0.463C0.404,-0.466 0.393,-0.467 0.38,-0.467C0.325,-0.467 0.273,-0.45 0.226,-0.416L0.226,-0.056L0.353,-0.048L0.353,-0L0.047,-0L0.047,-0.049Z" style="fill:white;fill-rule:nonzero;"/>
        </g>
        <g transform="matrix(33.3333,0,0,33.3333,131.879,96.5)">
            <path d="M0.126,0.249C0.115,0.249 0.103,0.248 0.093,0.247C0.082,0.246 0.074,0.244 0.069,0.241L0.069,0.154C0.073,0.157 0.081,0.159 0.093,0.16C0.104,0.161 0.115,0.162 0.126,0.162C0.158,0.162 0.186,0.151 0.211,0.128C0.235,0.106 0.258,0.063 0.281,-0L0.233,-0L0.043,-0.495L-0.003,-0.508L-0.003,-0.555L0.238,-0.555L0.238,-0.508L0.161,-0.496L0.259,-0.201L0.305,-0.055L0.348,-0.202L0.437,-0.496L0.37,-0.508L0.37,-0.555L0.571,-0.555L0.571,-0.508L0.521,-0.496C0.423,-0.196 0.365,-0.026 0.348,0.015C0.325,0.072 0.305,0.117 0.286,0.149C0.267,0.182 0.245,0.206 0.22,0.223C0.195,0.24 0.163,0.249 0.126,0.249Z" style="fill:white;fill-rule:nonzero;"/>
        </g>
    </g>
    <g transform="matrix(1,0,0,1,-33.9875,-2.33333)">
        <g transform="matrix(75,0,0,75,38.6375,69.8333)">
            <path d="M0.045,-0.279C0.045,-0.339 0.057,-0.391 0.082,-0.435C0.107,-0.479 0.139,-0.513 0.18,-0.536C0.22,-0.559 0.263,-0.57 0.309,-0.57C0.393,-0.57 0.456,-0.543 0.499,-0.49C0.541,-0.437 0.562,-0.367 0.562,-0.28C0.562,-0.219 0.55,-0.167 0.525,-0.123C0.5,-0.079 0.468,-0.046 0.428,-0.023C0.387,-0 0.344,0.011 0.298,0.011C0.214,0.011 0.151,-0.016 0.109,-0.069C0.066,-0.122 0.045,-0.192 0.045,-0.279ZM0.304,-0.046C0.35,-0.046 0.385,-0.065 0.41,-0.103C0.435,-0.141 0.447,-0.197 0.447,-0.272C0.447,-0.346 0.436,-0.405 0.413,-0.448C0.39,-0.491 0.354,-0.513 0.304,-0.513C0.258,-0.513 0.223,-0.494 0.198,-0.456C0.172,-0.418 0.16,-0.362 0.16,-0.287C0.16,-0.213 0.172,-0.154 0.195,-0.111C0.218,-0.068 0.255,-0.046 0.304,-0.046Z" style="fill:white;fill-rule:nonzero;"/>
        </g>
        <g transform="matrix(75,0,0,75,84.2375,69.8333)">
            <path d="M0.5,0.009C0.481,0.009 0.468,0.005 0.459,-0.002C0.45,-0.009 0.445,-0.021 0.445,-0.038L0.445,-0.072C0.423,-0.05 0.396,-0.031 0.363,-0.014C0.33,0.003 0.296,0.011 0.263,0.011C0.201,0.011 0.157,-0.006 0.131,-0.039C0.105,-0.072 0.092,-0.127 0.092,-0.204L0.092,-0.494L0.036,-0.51L0.036,-0.554L0.176,-0.567L0.177,-0.567L0.196,-0.555L0.196,-0.212C0.196,-0.173 0.199,-0.143 0.204,-0.122C0.21,-0.1 0.22,-0.084 0.234,-0.074C0.249,-0.063 0.27,-0.058 0.297,-0.058C0.324,-0.058 0.349,-0.064 0.372,-0.075C0.395,-0.086 0.416,-0.1 0.433,-0.115L0.433,-0.494L0.361,-0.51L0.361,-0.554L0.513,-0.567L0.514,-0.567L0.537,-0.555L0.537,-0.051L0.597,-0.051L0.596,-0.006C0.577,-0.001 0.561,0.002 0.548,0.005C0.534,0.008 0.518,0.009 0.5,0.009Z" style="fill:white;fill-rule:nonzero;"/>
        </g>
        <g transform="matrix(75,0,0,75,131.637,69.8333)">
            <path d="M0.216,0.01C0.178,0.01 0.15,0.001 0.131,-0.016C0.112,-0.033 0.103,-0.063 0.103,-0.105L0.103,-0.489L0.031,-0.489L0.031,-0.534C0.034,-0.535 0.044,-0.537 0.059,-0.541C0.074,-0.545 0.085,-0.549 0.09,-0.552C0.101,-0.558 0.109,-0.57 0.115,-0.588C0.12,-0.601 0.127,-0.621 0.134,-0.649C0.141,-0.677 0.146,-0.694 0.147,-0.699L0.206,-0.699L0.208,-0.555L0.375,-0.555L0.375,-0.489L0.208,-0.489L0.208,-0.182C0.208,-0.144 0.209,-0.117 0.212,-0.102C0.214,-0.087 0.219,-0.077 0.227,-0.072C0.234,-0.067 0.247,-0.065 0.266,-0.065C0.284,-0.065 0.304,-0.067 0.326,-0.072C0.347,-0.077 0.364,-0.082 0.376,-0.087L0.391,-0.042C0.375,-0.03 0.349,-0.018 0.314,-0.007C0.278,0.004 0.245,0.01 0.216,0.01Z" style="fill:white;fill-rule:nonzero;"/>
        </g>
    </g>
</svg>
